<?xml version="1.0"?>
<svg xmlns="http://www.w3.org/2000/svg" height="512px" viewBox="-58 0 512 512" width="512px" class=""><g><path d="m380.007812 512h-365.007812c-8.285156 0-15-6.714844-15-15v-482c0-8.285156 6.714844-15 15-15h229.984375l150.023437 150.011719v346.988281c0 8.285156-6.714843 15-15 15zm0 0" fill="#dfeefa" data-original="#DFEEFA" class="" data-old_color="#dfeefa" style="fill:#E2E5E7"/><path d="m197.496094 0v512h182.511718c8.285157 0 15-6.714844 15-15v-346.988281l-150.023437-150.011719zm0 0" fill="#c9dff7" data-original="#C9DFF7" class="" data-old_color="#c9dff7" style="fill:#E2E5E7"/><path d="m395.007812 150.011719h-135.023437c-8.28125 0-15-6.71875-15-15.003907v-135.007812zm0 0" fill="#82a0d2" data-original="#82A0D2" class="active-path" data-old_color="#82a0d2" style="fill:#B0B7BD"/><path d="m103.460938 174.875c-8.28125 0-15-6.714844-15-15v-23.113281c0-8.285157 6.71875-15 15-15 8.761718 0 15.886718-7.128907 15.886718-15.886719 0-8.761719-7.125-15.890625-15.886718-15.890625-6.402344 0-12.148438 3.8125-14.644532 9.710937-3.226562 7.628907-12.027344 11.199219-19.65625 7.972657-7.632812-3.230469-11.199218-12.03125-7.972656-19.660157 7.199219-17.023437 23.792969-28.023437 42.273438-28.023437 25.304687 0 45.890624 20.585937 45.890624 45.890625 0 20.050781-12.929687 37.140625-30.890624 43.367188v10.632812c0 8.285156-6.714844 15-15 15zm0 0" fill="#ff5c42" data-original="#FF5C42" class="" data-old_color="#ff5c42" style="fill:#FF5C42"/><path d="m103.460938 234.878906c-3.949219 0-7.808594-1.609375-10.609376-4.398437-2.789062-2.789063-4.390624-6.660157-4.390624-10.601563 0-3.949218 1.601562-7.820312 4.390624-10.609375 2.800782-2.789062 6.660157-4.390625 10.609376-4.390625 3.949218 0 7.8125 1.601563 10.609374 4.390625 2.792969 2.789063 4.390626 6.660157 4.390626 10.609375 0 3.949219-1.597657 7.8125-4.390626 10.601563-2.789062 2.789062-6.660156 4.398437-10.609374 4.398437zm0 0" fill="#ff5c42" data-original="#FF5C42" class="" data-old_color="#ff5c42" style="fill:#FF5C42"/><path d="m320.007812 211.023438h-159c-8.285156 0-15.003906-6.714844-15.003906-15 0-8.285157 6.71875-15 15.003906-15h159c8.285157 0 15 6.714843 15 15 0 8.285156-6.71875 15-15 15zm0 0" fill="#9ebbdb" data-original="#9EBBDB" class="" data-old_color="#9ebbdb" style="fill:#FF5C42"/><path d="m320.007812 271.023438h-159c-8.285156 0-15.003906-6.714844-15.003906-15 0-8.285157 6.71875-15 15.003906-15h159c8.285157 0 15 6.714843 15 15 0 8.285156-6.71875 15-15 15zm0 0" fill="#9ebbdb" data-original="#9EBBDB" class="" data-old_color="#9ebbdb" style="fill:#FF5C42"/><path d="m320.007812 331.027344h-242.507812c-8.28125 0-15-6.71875-15-15.003906 0-8.28125 6.71875-15 15-15h242.507812c8.28125 0 15 6.71875 15 15 0 8.285156-6.71875 15.003906-15 15.003906zm0 0" fill="#9ebbdb" data-original="#9EBBDB" class="" data-old_color="#9ebbdb" style="fill:#FF5C42"/><path d="m320.007812 391.027344h-242.507812c-8.28125 0-15-6.71875-15-15 0-8.285156 6.71875-15 15-15h242.507812c8.28125 0 15 6.714844 15 15 0 8.28125-6.71875 15-15 15zm0 0" fill="#9ebbdb" data-original="#9EBBDB" class="" data-old_color="#9ebbdb" style="fill:#FF5C42"/><path d="m320.007812 451.027344h-242.507812c-8.28125 0-15-6.714844-15-15s6.71875-15 15-15h242.507812c8.28125 0 15 6.714844 15 15s-6.71875 15-15 15zm0 0" fill="#9ebbdb" data-original="#9EBBDB" class="" data-old_color="#9ebbdb" style="fill:#FF5C42"/><g fill="#82a0d2"><path d="m320.007812 181.023438h-122.511718v30h122.511718c8.28125 0 15-6.714844 15-15 0-8.285157-6.71875-15-15-15zm0 0" data-original="#000000" class="" style="fill:#FF5C42" data-old_color="#000000"/><path d="m320.007812 241.023438h-122.511718v30h122.511718c8.28125 0 15-6.714844 15-15 0-8.285157-6.71875-15-15-15zm0 0" data-original="#000000" class="" style="fill:#FF5C42" data-old_color="#000000"/><path d="m320.007812 301.023438h-122.511718v30.003906h122.511718c8.28125 0 15-6.71875 15-15.003906 0-8.285157-6.71875-15-15-15zm0 0" data-original="#000000" class="" style="fill:#FF5C42" data-old_color="#000000"/><path d="m320.007812 361.027344h-122.511718v30h122.511718c8.28125 0 15-6.71875 15-15 0-8.285156-6.71875-15-15-15zm0 0" data-original="#000000" class="" style="fill:#FF5C42" data-old_color="#000000"/><path d="m320.007812 421.027344h-122.511718v30h122.511718c8.28125 0 15-6.714844 15-15s-6.71875-15-15-15zm0 0" data-original="#000000" class="" style="fill:#FF5C42" data-old_color="#000000"/></g></g> </svg>
